<svg xmlns="http://www.w3.org/2000/svg" xmlns:xlink="http://www.w3.org/1999/xlink" version="1.1" x="0px" y="0px" viewBox="0 0 100 125" enable-background="new 0 0 100 100" xml:space="preserve"><path d="M61,37c-0.2,0-0.4,0-0.6-0.1c-3.6-1.2-8.2-1.9-12.9-1.9s-9.3,0.7-12.9,1.9c-1,0.4-2.2-0.2-2.5-1.2c-0.4-1,0.2-2.2,1.2-2.5  c4-1.4,8.9-2.1,14.1-2.1s10.1,0.7,14.1,2.1c1,0.4,1.6,1.5,1.2,2.5C62.6,36.5,61.8,37,61,37z"/><path d="M72,92H59c-0.8,0-1.6-0.5-1.9-1.3l-1.3-3.5c-2.7,0.5-5.5,0.8-8.3,0.8c-4.4,0-8.7-0.6-12.8-1.9l-1.8,4.6  c-0.3,0.8-1,1.3-1.9,1.3H18c-1,0-1.9-0.8-2-1.8l-1.8-18.5C10.8,66.7,9,61,9,55.1c0-13.8,10.2-26.3,25.4-30.9  c1.1-0.3,2.2,0.3,2.5,1.3c0.3,1.1-0.3,2.2-1.3,2.5C22.1,32.2,13,43.1,13,55.1c0,5.2,1.7,10.3,4.8,14.7c0.2,0.3,0.3,0.6,0.4,1  L19.8,88h9.8l2-5.1c0.4-1,1.5-1.5,2.5-1.1c4.2,1.5,8.7,2.2,13.3,2.2c3.1,0,6.2-0.3,9.1-1c1-0.2,2,0.3,2.3,1.2l1.4,3.8h9.9l1.6-11.7  c0.1-0.5,0.3-0.9,0.7-1.2c4.1-3.6,7-8,8.5-12.8c0.2-0.7,0.8-1.2,1.5-1.4l6.6-1.5V50h-6c-0.9,0-1.7-0.6-1.9-1.5  c-1.4-5.1-4.5-9.8-8.9-13.6c-0.7-0.6-0.9-1.6-0.5-2.5l4.2-7.8c-2.8-0.3-7.6-0.1-11.2,3.9c-0.6,0.6-1.5,0.8-2.2,0.5  c-3.5-1.4-7.1-2.3-11-2.7c-1.1-0.1-1.9-1.1-1.8-2.2c0.1-1.1,1.1-1.9,2.2-1.8c3.7,0.4,7.4,1.2,10.8,2.5c7.1-6.7,16.5-3.7,16.9-3.5  c0.6,0.2,1,0.6,1.2,1.2c0.2,0.6,0.2,1.2-0.1,1.7L76,33c4,3.7,6.9,8.2,8.5,13H91c1.1,0,2,0.9,2,2v13c0,0.9-0.7,1.7-1.6,2l-7,1.6  c-1.7,4.8-4.7,9.3-8.7,13L74,90.3C73.8,91.3,73,92,72,92z"/><path d="M68,55c-3.3,0-6-2.7-6-6s2.7-6,6-6s6,2.7,6,6S71.3,55,68,55z M68,47c-1.1,0-2,0.9-2,2s0.9,2,2,2s2-0.9,2-2S69.1,47,68,47z"/><path d="M39,35.7c-0.4,0-0.7-0.1-1.1-0.3c-3.1-1.9-5-5.3-5-8.9C33,20.7,37.7,16,43.5,16S54,20.7,54,26.5c0,2.8-1.1,5.4-3.1,7.4  c-0.8,0.8-2,0.8-2.8,0c-0.8-0.8-0.8-2,0-2.8c1.2-1.2,1.9-2.9,1.9-4.6c0-3.6-2.9-6.5-6.5-6.5S37,22.9,37,26.5c0,2.3,1.2,4.3,3.1,5.5  c0.9,0.6,1.2,1.8,0.6,2.8C40.3,35.4,39.7,35.7,39,35.7z"/><path d="M51.6,25.9c-1,0-1.8-0.7-2-1.7c-0.1-1.1,0.6-2.1,1.7-2.2c3.2-0.4,5.7-3.2,5.7-6.4c0-3.6-2.9-6.5-6.5-6.5S44,11.9,44,15.5  c0,0.7,0.1,1.3,0.3,2c0.3,1.1-0.2,2.2-1.3,2.5c-1.1,0.3-2.2-0.2-2.5-1.3c-0.3-1-0.5-2.1-0.5-3.2C40,9.7,44.7,5,50.5,5  S61,9.7,61,15.5c0,5.3-3.9,9.7-9.1,10.4C51.8,25.9,51.7,25.9,51.6,25.9z"/><path d="M21.5,33.8c-0.2,0-0.5,0-0.7-0.1c-2.1-0.8-3.9-2.3-5.1-4.2c-0.9,0-1.7-0.1-2.5-0.3c-2.1-0.6-3.8-2-5.1-4.2  c-0.5-1-0.2-2.2,0.7-2.7c1-0.5,2.2-0.2,2.7,0.7c0.7,1.2,1.5,2,2.6,2.3c-0.2-1.2-0.2-2.6,0-4c0.5-2.6,2.7-4.6,5.3-4.6  c0,0,0.1,0,0.1,0c2.5,0,4.9,1.9,5.3,4.4c0.6,3.3-1.8,6.1-4.9,7.4c0.6,0.6,1.4,1.1,2.2,1.4c1,0.4,1.6,1.5,1.2,2.6  C23.1,33.3,22.3,33.8,21.5,33.8z M19.5,20.7C19.5,20.7,19.5,20.7,19.5,20.7c-0.6,0-1.3,0.6-1.4,1.2c-0.1,1.1-0.1,2.1,0,3  c1.6-0.6,3-1.9,2.8-3.1C20.8,21.3,20.2,20.7,19.5,20.7z"/><text x="0" y="115" fill="#000000" font-size="5px" font-weight="bold" font-family="'Helvetica Neue', Helvetica, Arial-Unicode, Arial, Sans-serif">Created by Blair Adams</text><text x="0" y="120" fill="#000000" font-size="5px" font-weight="bold" font-family="'Helvetica Neue', Helvetica, Arial-Unicode, Arial, Sans-serif">from the Noun Project</text></svg>