<?xml version="1.0" encoding="iso-8859-1"?>
<!-- Generator: Adobe Illustrator 19.0.0, SVG Export Plug-In . SVG Version: 6.00 Build 0)  -->
<svg version="1.1" id="Capa_1" xmlns="http://www.w3.org/2000/svg" xmlns:xlink="http://www.w3.org/1999/xlink" x="0px" y="0px"
	 viewBox="0 0 512 512" style="enable-background:new 0 0 512 512;" xml:space="preserve">
<g>
	<g>
		<g>
			<path d="M492,404c-11.046,0-20,8.954-20,20v12c0,11.046,8.954,20,20,20c11.046,0,20-8.954,20-20v-12
				C512,412.954,503.046,404,492,404z"/>
			<path d="M492,236H277v-60c0-11.046-8.954-20-20-20c-11.046,0-20,8.954-20,20v60h-38V96c0-11.046-8.954-20-20-20s-20,8.954-20,20
				v140h-39V20c0-11.046-8.954-20-20-20S80,8.954,80,20v216H40V76c0-11.046-8.954-20-20-20S0,64.954,0,76v180
				c0,11.046,8.954,20,20,20h217v60c0,11.046,8.954,20,20,20s20-8.954,20-20v-60h38v140c0,11.046,8.954,20,20,20
				c11.046,0,20-8.954,20-20V276h39v216c0,11.046,8.954,20,20,20c11.046,0,20-8.954,20-20V276h38v59c0,11.046,8.954,20,20,20
				c11.046,0,20-8.954,20-20v-79C512,244.954,503.046,236,492,236z"/>
		</g>
	</g>
</g>
<g>
</g>
<g>
</g>
<g>
</g>
<g>
</g>
<g>
</g>
<g>
</g>
<g>
</g>
<g>
</g>
<g>
</g>
<g>
</g>
<g>
</g>
<g>
</g>
<g>
</g>
<g>
</g>
<g>
</g>
</svg>
