<?xml version="1.0" encoding="iso-8859-1"?>
<!-- Generator: Adobe Illustrator 19.0.0, SVG Export Plug-In . SVG Version: 6.00 Build 0)  -->
<svg version="1.1" id="Capa_1" xmlns="http://www.w3.org/2000/svg" xmlns:xlink="http://www.w3.org/1999/xlink" x="0px" y="0px"
	 viewBox="0 0 512 512" style="enable-background:new 0 0 512 512;" xml:space="preserve">
<g>
	<g>
		<g>
			<path d="M451.5,272c11.046,0,20-8.954,20-20V20c0-11.046-8.954-20-20-20h-351c-33.084,0-60,26.916-60,60v392
				c0,33.084,26.916,60,60,60h351c11.046,0,20-8.954,20-20c0-11.046-8.954-20-20-20h-351c-11.028,0-20-8.972-20-20s8.972-20,20-20
				h351c11.046,0,20-8.954,20-20v-60c0-11.046-8.954-20-20-20c-11.046,0-20,8.954-20,20v40h-271V100c0-11.046-8.954-20-20-20
				s-20,8.954-20,20v292h-20c-7.011,0-13.74,1.22-20,3.44V60c0-11.028,8.972-20,20-20h331v212C431.5,263.046,440.454,272,451.5,272z
				"/>
			<path d="M295.499,362.917c11.046,0,20-8.954,20-20v-15.272c13.904-1.448,26.774-7.414,36.774-17.179
				c11.753-11.479,18.226-26.902,18.226-43.43v-10.882c0-34.272-27.656-62.154-61.651-62.154h-20.991
				c-11.976,0-21.357-9.344-21.357-21.273v-3.096c0-12.13,9.38-21.631,21.357-21.631h19.85c7.863,0,13.793,6.019,13.793,14
				c0,11.046,8.954,20,20,20c11.046,0,20-8.954,20-20c0-14.48-5.543-28.042-15.609-38.187c-8.28-8.345-18.868-13.617-30.392-15.258
				V92.083c0-11.046-8.954-20-20-20c-11.046,0-20,8.954-20,20v17.173c-27.93,5.76-49,30.642-49,60.375v3.096
				c0,16.488,6.37,31.916,17.935,43.442C255.971,227.667,271.393,234,287.857,234h20.991c11.736,0,21.651,10.145,21.651,22.154
				v10.882c0,11.756-9.51,20.964-21.651,20.964h-34.114c-7.981,0-14.234-6.149-14.234-14c0-11.046-8.954-20-20-20s-20,8.954-20,20
				c0,29.775,24.329,54,54.234,54h0.766v14.917C275.5,353.963,284.453,362.917,295.499,362.917z"/>
		</g>
	</g>
</g>
<g>
</g>
<g>
</g>
<g>
</g>
<g>
</g>
<g>
</g>
<g>
</g>
<g>
</g>
<g>
</g>
<g>
</g>
<g>
</g>
<g>
</g>
<g>
</g>
<g>
</g>
<g>
</g>
<g>
</g>
</svg>
