<?xml version="1.0" encoding="iso-8859-1"?>
<!-- Generator: Adobe Illustrator 19.0.0, SVG Export Plug-In . SVG Version: 6.00 Build 0)  -->
<svg version="1.1" id="Capa_1" xmlns="http://www.w3.org/2000/svg" xmlns:xlink="http://www.w3.org/1999/xlink" x="0px" y="0px"
	 viewBox="0 0 512 512" style="enable-background:new 0 0 512 512;" xml:space="preserve">
<g>
	<g>
		<g>
			<path d="M118.5,80c-11.046,0-20,8.954-20,20v112c0,11.046,8.954,20,20,20s20-8.954,20-20V100C138.5,88.954,129.546,80,118.5,80z"
				/>
			<path d="M155.5,0h-75c-44.112,0-80,35.888-80,80v352c0,44.112,35.888,80,80,80h75c44.112,0,80-35.888,80-80
				c0-11.046-8.954-20-20-20s-20,8.954-20,20c0,22.056-17.944,40-40,40h-75c-22.056,0-40-17.944-40-40V312h155v20
				c0,11.046,8.954,20,20,20s20-8.954,20-20V80C235.5,35.888,199.612,0,155.5,0z M195.5,272h-155V80c0-22.056,17.944-40,40-40h75
				c22.056,0,40,17.944,40,40V272z"/>
			<circle cx="394.5" cy="392" r="40"/>
			<path d="M491.5,352c11.046,0,20-8.954,20-20V80c0-44.112-35.888-80-80-80h-75c-44.112,0-80,35.888-80,80v352
				c0,44.112,35.888,80,80,80h75c44.112,0,80-35.888,80-80c0-11.046-8.954-20-20-20c-11.046,0-20,8.954-20,20
				c0,22.056-17.944,40-40,40h-75c-22.056,0-40-17.944-40-40V312h155v20C471.5,343.046,480.454,352,491.5,352z M316.5,272V80
				c0-22.056,17.944-40,40-40h75c22.056,0,40,17.944,40,40v192H316.5z"/>
			<path d="M394.5,80c-11.046,0-20,8.954-20,20v112c0,11.046,8.954,20,20,20c11.046,0,20-8.954,20-20V100
				C414.5,88.954,405.546,80,394.5,80z"/>
			<circle cx="118.5" cy="392" r="40"/>
		</g>
	</g>
</g>
<g>
</g>
<g>
</g>
<g>
</g>
<g>
</g>
<g>
</g>
<g>
</g>
<g>
</g>
<g>
</g>
<g>
</g>
<g>
</g>
<g>
</g>
<g>
</g>
<g>
</g>
<g>
</g>
<g>
</g>
</svg>
