<?xml version="1.0" encoding="iso-8859-1"?>
<!-- Generator: Adobe Illustrator 19.0.0, SVG Export Plug-In . SVG Version: 6.00 Build 0)  -->
<svg version="1.1" id="Capa_1" xmlns="http://www.w3.org/2000/svg" xmlns:xlink="http://www.w3.org/1999/xlink" x="0px" y="0px"
	 viewBox="0 0 512 512" style="enable-background:new 0 0 512 512;" xml:space="preserve">
<g>
	<g>
		<g>
			<path d="M200.205,295H39.77c-16.1,0-30.501,9.615-36.688,24.496c-6.199,14.906-2.853,31.932,8.525,43.375l73.13,73.541
				C94.12,445.819,106.6,451,119.876,451c13.276,0,25.755-5.181,35.137-14.588l73.312-73.498
				c11.405-11.435,14.773-28.467,8.58-43.391C230.723,304.626,216.317,295,200.205,295z M126.693,408.164
				c-2.461,2.468-5.327,2.836-6.817,2.836s-4.357-0.368-6.797-2.814L40.302,335h159.37L126.693,408.164z"/>
			<path d="M499.349,367.405c-10.271-4.068-21.892,0.963-25.958,11.233C465.488,398.6,446.941,411,424.987,411h-69
				c-22.056,0-40-17.944-40-40c0-11.046-8.954-20-20-20c-11.046,0-20,8.954-20,20c0,44.112,35.888,80,80,80h21v41
				c0,11.046,8.954,20,20,20c11.046,0,20-8.954,20-20v-41h8c19.009,0,37.097-5.476,52.308-15.835
				c14.992-10.21,26.503-24.666,33.288-41.803C514.649,383.092,509.62,371.471,499.349,367.405z"/>
			<path d="M378.987,267h46c21.776,0,40.345,12.455,48.461,32.505c3.149,7.779,10.638,12.501,18.545,12.5
				c2.499,0,5.039-0.471,7.498-1.466c10.239-4.145,15.179-15.805,11.034-26.044C496.388,249.568,462.811,227,424.987,227h-46
				c-29.224,0-53-23.775-53-53v-20c0-29.225,23.776-53,53-53h44c22.056,0,40,17.944,40,40c0,11.046,8.954,20,20,20
				c11.046,0,20-8.954,20-20c0-44.112-35.888-80-80-80h-6V20c0-11.046-8.954-20-20-20c-11.046,0-20,8.954-20,20v41.025
				c-50.36,1.068-91,42.363-91,92.975v20C285.987,225.28,327.707,267,378.987,267z"/>
			<path d="M39.77,221h160.434c16.113,0,30.519-9.626,36.7-24.523c6.193-14.924,2.825-31.956-8.58-43.391l-73.311-73.498
				C145.63,70.181,133.151,65,119.875,65s-25.755,5.181-35.16,14.609l-73.109,73.52c-11.378,11.443-14.724,28.469-8.525,43.375
				C9.269,211.385,23.67,221,39.77,221z M113.057,107.836c2.461-2.468,5.328-2.836,6.818-2.836s4.357,0.368,6.818,2.836L199.672,181
				H40.302L113.057,107.836z"/>
		</g>
	</g>
</g>
<g>
</g>
<g>
</g>
<g>
</g>
<g>
</g>
<g>
</g>
<g>
</g>
<g>
</g>
<g>
</g>
<g>
</g>
<g>
</g>
<g>
</g>
<g>
</g>
<g>
</g>
<g>
</g>
<g>
</g>
</svg>
