<?xml version="1.0" encoding="iso-8859-1"?>
<!-- Generator: Adobe Illustrator 19.0.0, SVG Export Plug-In . SVG Version: 6.00 Build 0)  -->
<svg version="1.1" id="Capa_1" xmlns="http://www.w3.org/2000/svg" xmlns:xlink="http://www.w3.org/1999/xlink" x="0px" y="0px"
	 viewBox="0 0 511.999 511.999" style="enable-background:new 0 0 511.999 511.999;" xml:space="preserve">
<g>
	<g>
		<g>
			<path d="M139.001,251.998H20.002c-11.046,0-20,8.954-20,20c0,11.046,8.954,20,20,20h118.999c11.046,0,20-8.954,20-20
				C159,260.951,150.046,251.998,139.001,251.998z"/>
			<path d="M20.002,211.998h69.653c34.82,0,63.249-28.089,64.295-63.01c0.016-0.33,0.05-0.655,0.05-0.989
				c0-0.167-0.012-0.332-0.013-0.499c0.002-0.168,0.013-0.333,0.013-0.501c0-0.336-0.034-0.664-0.05-0.997
				c-0.65-21.466-11.688-40.344-28.234-51.685c2.346-3.705,4.323-7.689,5.852-11.923c2.419-6.7,3.646-13.729,3.646-20.892
				C135.215,27.59,107.625,0,73.713,0H20.002c-11.046,0-20,8.954-20,20v171.998C0.002,203.044,8.957,211.998,20.002,211.998z
				 M40.002,40h33.712c11.857,0,21.502,9.646,21.503,21.502c0,2.518-0.427,4.976-1.269,7.306
				c-3.065,8.491-11.197,14.195-20.233,14.195c-0.549,0-1.087,0.039-1.625,0.082H40.002V40z M40.002,123.084h49.493
				c13.12,0,24.223,11.131,24.495,24.417c-0.273,13.331-11.301,24.498-24.335,24.498H40.002V123.084z"/>
			<path d="M491.997,251.998H372.998c-11.046,0-20,8.954-20,20c0,11.046,8.954,20,20,20h118.999c11.046,0,20-8.954,20-20
				C511.997,260.951,503.043,251.998,491.997,251.998z"/>
			<path d="M259,211.998c39.701,0,71.999-32.299,71.999-71.999V20c0-11.046-8.954-20-20-20s-20,8.954-20,20v119.999
				c0,17.645-14.355,32-32,32c-17.645,0-32-14.355-32-32V20c0-11.046-8.954-20-20-20s-20,8.954-20,20v119.999
				C187,179.699,219.299,211.998,259,211.998z"/>
			<path d="M491.997,0c-11.046,0-20,8.954-20,20v40c0,17.645-14.355,32-32,32c-17.645,0-32-14.355-32-32V20c0-11.046-8.954-20-20-20
				s-20,8.954-20,20v40c0,39.701,32.299,71.999,71.999,71.999c11.491,0,22.353-2.72,32-7.528v15.528c0,17.645-14.355,32-32,32h-52
				c-11.046,0-20,8.954-20,20s8.954,20,20,20h52c39.701,0,71.999-32.299,71.999-71.999V59.999V20C511.997,8.954,503.043,0,491.997,0
				z"/>
			<path d="M372.8,338.346l-106.807-96.36c-0.171-0.155-0.346-0.308-0.524-0.457c-12.178-10.24-28.708-12.43-43.141-5.708
				c-14.389,6.699-23.327,20.704-23.327,36.55v149.273c0,22.27,18.716,41.205,40.869,41.351c0.045,0,0.089,0,0.134,0
				c10.983-0.001,19.925-8.869,19.997-19.869c0.071-10.996-8.744-19.977-19.72-20.129c-0.446-0.138-1.28-0.812-1.28-1.353V272.368
				c0-0.074,0.004-0.128,0.008-0.163c0.122-0.109,0.386-0.219,0.49-0.219c0.001,0,0.003,0,0.005,0
				c0.012,0.005,0.044,0.022,0.093,0.056l105.406,95.097c0.01,0.242-0.15,0.671-0.317,0.855h-49.685
				c-6.876,0-13.271,3.533-16.931,9.354c-3.661,5.822-4.074,13.116-1.095,19.313l50,103.999c3.443,7.161,10.592,11.339,18.04,11.339
				c2.905,0,5.857-0.636,8.651-1.979c9.955-4.786,14.145-16.736,9.359-26.691l-36.219-75.333h18.501
				c0.248,0,0.495-0.005,0.742-0.014c16.017-0.596,29.762-10.258,35.872-25.217c6.139-15.029,3.074-31.628-7.996-43.321
				C373.563,339.064,373.188,338.698,372.8,338.346z"/>
		</g>
	</g>
</g>
<g>
</g>
<g>
</g>
<g>
</g>
<g>
</g>
<g>
</g>
<g>
</g>
<g>
</g>
<g>
</g>
<g>
</g>
<g>
</g>
<g>
</g>
<g>
</g>
<g>
</g>
<g>
</g>
<g>
</g>
</svg>
