<?xml version="1.0" encoding="iso-8859-1"?>
<!-- Generator: Adobe Illustrator 19.0.0, SVG Export Plug-In . SVG Version: 6.00 Build 0)  -->
<svg version="1.1" id="Capa_1" xmlns="http://www.w3.org/2000/svg" xmlns:xlink="http://www.w3.org/1999/xlink" x="0px" y="0px"
	 viewBox="0 0 512 512" style="enable-background:new 0 0 512 512;" xml:space="preserve">
<g>
	<g>
		<g>
			<path d="M492,472h-12.679l-39.956-69.923C435.804,395.846,429.177,392,422,392H252c-7.177,0-13.804,3.846-17.365,10.077
				L194.679,472H182c-11.046,0-20,8.954-20,20c0,11.046,8.954,20,20,20h310c11.046,0,20-8.954,20-20
				C512,480.954,503.046,472,492,472z M240.75,472l22.856-40h146.787l22.857,40H240.75z"/>
			<path d="M255.145,235.001H232c-11.046,0-20,8.954-20,20c0,11.046,8.954,20,20,20h210c11.046,0,20-8.954,20-20
				c0-11.046-8.954-20-20-20h-24.7c0.764-2.967,1.494-5.931,2.181-8.888c2.499-10.759-4.196-21.507-14.956-24.007
				c-10.752-2.494-21.507,4.197-24.007,14.956c-1.384,5.962-2.967,11.959-4.693,17.938h-79.297
				c-9.008-31.634-13.558-63.477-13.643-95.884c0.073-0.696,0.114-1.401,0.114-2.116c0-0.598-0.038-1.187-0.089-1.772
				c0.259-31.107,4.609-62.745,13.065-95.228h78.854c8.918,31.54,13.762,62.907,14.408,93.423
				c0.23,10.899,9.136,19.577,19.986,19.577c0.144,0,0.288-0.001,0.432-0.005c11.043-0.233,19.806-9.375,19.572-20.418
				c-0.642-30.378-5.013-61.417-12.988-92.577H442c11.046,0,20-8.954,20-20s-8.954-20-20-20H232c-11.046,0-20,8.954-20,20
				s8.954,20,20,20h22.785c-6.097,25.876-9.815,51.566-11.14,77H20c-11.046,0-20,8.954-20,20s8.954,20,20,20h223.548
				C244.794,183.345,248.663,209.371,255.145,235.001z"/>
		</g>
	</g>
</g>
<g>
</g>
<g>
</g>
<g>
</g>
<g>
</g>
<g>
</g>
<g>
</g>
<g>
</g>
<g>
</g>
<g>
</g>
<g>
</g>
<g>
</g>
<g>
</g>
<g>
</g>
<g>
</g>
<g>
</g>
</svg>
