<?xml version="1.0" encoding="iso-8859-1"?>
<!-- Generator: Adobe Illustrator 19.0.0, SVG Export Plug-In . SVG Version: 6.00 Build 0)  -->
<svg version="1.1" id="Capa_1" xmlns="http://www.w3.org/2000/svg" xmlns:xlink="http://www.w3.org/1999/xlink" x="0px" y="0px"
	 viewBox="0 0 512 512" style="enable-background:new 0 0 512 512;" xml:space="preserve">
<g>
	<g>
		<g>
			<path d="M276,171c0-11.046-8.954-20-20-20s-20,8.954-20,20v45c0,33.084,26.916,60,60,60h45c11.046,0,20-8.954,20-20
				s-8.954-20-20-20h-35.759L506.175,34.109c7.792-7.829,7.762-20.492-0.067-28.284c-7.828-7.792-20.492-7.762-28.284,0.067
				L276,208.677V171z"/>
			<path d="M487.939,147.516c-4.686-10.002-16.592-14.314-26.596-9.628c-10.002,4.687-14.312,16.594-9.626,26.596
				c10.63,22.692,17.103,46.673,19.362,71.516h-39.218c-0.867-7.702-2.219-15.332-4.081-22.824
				c-2.665-10.72-13.516-17.245-24.234-14.585c-10.72,2.664-17.25,13.513-14.585,24.233C391.641,233.607,393,244.77,393,256
				c0,68.749-50.905,125.826-117,135.536V331c0-11.046-8.954-20-20-20s-20,8.954-20,20v60.536
				C176.435,382.785,129.215,335.565,120.464,276H181c11.046,0,20-8.954,20-20s-8.954-20-20-20h-60.536
				c9.71-66.095,66.787-117,135.536-117c12.455,0,24.79,1.667,36.663,4.955c10.647,2.952,21.665-3.291,24.612-13.937
				c2.948-10.645-3.292-21.664-13.937-24.612c-8.945-2.477-18.089-4.22-27.338-5.262V40.918
				c25.524,2.319,50.121,9.084,73.345,20.233c9.957,4.779,21.905,0.582,26.685-9.375c4.78-9.958,0.583-21.906-9.375-26.686
				C331.973,8.441,294.743,0,256,0C187.62,0,123.333,26.629,74.98,74.98C26.628,123.333,0,187.62,0,256s26.628,132.667,74.98,181.02
				C123.333,485.371,187.62,512,256,512c46.813,0,92.618-12.758,132.461-36.894c9.448-5.724,12.467-18.022,6.744-27.469
				c-5.723-9.448-18.022-12.468-27.468-6.744c-27.897,16.9-59.274,27.176-91.737,30.177v-39.207
				c81.649-9.225,146.638-74.215,155.863-155.863h39.2c-3.33,35.494-15.498,69.683-35.69,99.884
				c-6.139,9.182-3.672,21.603,5.511,27.742c3.415,2.283,7.276,3.376,11.097,3.376c6.454,0,12.789-3.118,16.645-8.886
				C497.001,355.674,512,306.53,512,256C512,218.095,503.905,181.595,487.939,147.516z M236,40.934v39.203
				C154.351,89.362,89.362,154.352,80.136,236H40.934C50.453,132.827,132.827,50.453,236,40.934z M236,471.066
				C132.827,461.547,50.453,379.173,40.934,276h39.203C89.362,357.648,154.351,422.638,236,431.864V471.066z"/>
		</g>
	</g>
</g>
<g>
</g>
<g>
</g>
<g>
</g>
<g>
</g>
<g>
</g>
<g>
</g>
<g>
</g>
<g>
</g>
<g>
</g>
<g>
</g>
<g>
</g>
<g>
</g>
<g>
</g>
<g>
</g>
<g>
</g>
</svg>
