<?xml version="1.0" encoding="iso-8859-1"?>
<!-- Generator: Adobe Illustrator 19.0.0, SVG Export Plug-In . SVG Version: 6.00 Build 0)  -->
<svg version="1.1" id="Capa_1" xmlns="http://www.w3.org/2000/svg" xmlns:xlink="http://www.w3.org/1999/xlink" x="0px" y="0px"
	 viewBox="0 0 512 512" style="enable-background:new 0 0 512 512;" xml:space="preserve">
<g>
	<g>
		<g>
			<path d="M509.95,330.778c-0.048-0.782-0.129-1.567-0.273-2.357l-38-209c-0.109-0.597-0.244-1.189-0.407-1.774
				c-4.465-16.072-13.665-30.13-26.606-40.655c-1.283-1.044-2.691-1.924-4.191-2.621L327.163,21.72
				C296.583,7.511,262.595,0,228.876,0H20C8.954,0,0,8.954,0,20s8.954,20,20,20h208.876c27.937,0,56.096,6.223,81.432,17.995
				l110.819,51.495c5.376,4.888,9.279,11.085,11.373,18.073l19.143,105.284c-16.047-12.491-34.588-21.914-54.739-27.395
				c-6.587-33.739-7.524-36.555-7.932-37.777c-3.492-10.48-14.817-16.141-25.298-12.649c-10.288,3.43-15.935,14.412-12.83,24.728
				c0.543,2.136,2.248,10.415,4.213,20.261c-39.382,0.234-76.447,15.114-104.663,41.114c-2.813-13.507-5.534-26.103-7.876-36.614
				c6.821-8.253,21.416-23.117,43.771-31.867c10.286-4.025,15.36-15.627,11.335-25.913c-4.026-10.286-15.626-15.363-25.914-11.335
				c-44.85,17.554-66.83,52.634-67.744,54.118c-2.746,4.463-3.631,9.825-2.465,14.933C215.426,265.466,231,347.518,231,366.001
				c0,10.841-9.388,20-20.5,20c-6.751,0-12.915-3.313-16.646-8.905l-85.866-177.311c-0.482-0.995-1.045-1.948-1.684-2.849
				C95.681,181.948,78.371,173,60,173H20c-11.046,0-20,8.954-20,20s8.954,20,20,20h40c4.975,0,9.687,2.223,12.853,6.005
				l85.5,176.554c0.285,0.589,0.598,1.162,0.939,1.72C170.293,415.264,189.436,426,210.5,426c1.996,0,3.967-0.102,5.913-0.29
				C242.716,478.474,296.36,512,356,512c26.139,0,52.009-6.598,74.811-19.08c9.689-5.303,13.243-17.458,7.94-27.147
				c-5.303-9.689-17.457-13.244-27.146-7.94C394.674,467.102,375.446,472,356,472c-43.946,0-83.514-24.479-103.265-63.097
				C263.993,398,271,382.8,271,366c0-13.369-4.751-43.205-10.79-75.429C281.903,258.855,317.496,240,356,240
				c63.963,0,116,52.037,116,116c0,12.263-1.899,24.328-5.645,35.863c-3.411,10.506,2.34,21.787,12.845,25.199
				c2.053,0.666,4.134,0.983,6.181,0.983c8.432-0.001,16.274-5.376,19.019-13.829c5.043-15.529,7.6-31.752,7.6-48.216
				C512,347.414,511.292,338.992,509.95,330.778z"/>
			<path d="M361.254,419.764c11.046,0,20-8.954,20-20v-90c0-7.594-4.301-14.533-11.102-17.912
				c-6.801-3.376-14.929-2.612-20.981,1.975l-32,24.261c-8.802,6.673-10.528,19.219-3.854,28.021
				c6.652,8.773,19.139,10.518,27.938,3.917v49.739C341.254,410.81,350.208,419.764,361.254,419.764z"/>
		</g>
	</g>
</g>
<g>
</g>
<g>
</g>
<g>
</g>
<g>
</g>
<g>
</g>
<g>
</g>
<g>
</g>
<g>
</g>
<g>
</g>
<g>
</g>
<g>
</g>
<g>
</g>
<g>
</g>
<g>
</g>
<g>
</g>
</svg>
