<?xml version="1.0" encoding="iso-8859-1"?>
<!-- Generator: Adobe Illustrator 19.0.0, SVG Export Plug-In . SVG Version: 6.00 Build 0)  -->
<svg version="1.1" id="Capa_1" xmlns="http://www.w3.org/2000/svg" xmlns:xlink="http://www.w3.org/1999/xlink" x="0px" y="0px"
	 viewBox="0 0 512 512" style="enable-background:new 0 0 512 512;" xml:space="preserve">
<g>
	<g>
		<g>
			<path d="M491.921,192.935c11.042,0,19.993-8.951,19.993-19.993V79.973C511.914,35.876,476.038,0,431.941,0H80.059
				C35.962,0,0.086,35.876,0.086,79.973v192.935c0,44.097,35.876,79.973,79.973,79.973h351.882
				c44.097,0,79.973-35.876,79.973-79.973c0-11.042-8.951-19.993-19.993-19.993c-11.042,0-19.993,8.951-19.993,19.993
				c0,22.049-17.938,39.987-39.987,39.987H80.059c-22.049,0-39.987-17.938-39.987-39.987V120.959h431.855v51.983
				C471.927,183.984,480.878,192.935,491.921,192.935z M40.073,80.973v-1c0-22.049,17.938-39.987,39.987-39.987h351.882
				c22.049,0,39.987,17.938,39.987,39.987v1H40.073z"/>
			<circle cx="411.948" cy="180.939" r="19.993"/>
			<path d="M451.934,391.868H77.947c-3.961,0-7.832,1.177-11.123,3.38L8.956,433.993c-5.464,3.659-8.78,9.77-8.868,16.346
				C0,456.914,3.15,463.112,8.515,466.917l58.185,41.256c3.381,2.395,7.422,3.684,11.564,3.684h244.713
				c11.042,0,19.993-8.951,19.993-19.993s-8.951-19.993-19.993-19.993H84.634L55.31,451.079l28.711-19.225h318.929v60.075
				c0,11.02,8.919,19.964,19.94,19.993L451.934,512c33.073,0,59.98-26.906,59.98-59.979
				C511.914,418.852,485.007,391.868,451.934,391.868z M451.987,472.013l-9.05-0.024v-40.135h8.997
				c11.024,0,19.993,9.047,19.993,20.166C471.927,463.044,462.958,472.013,451.987,472.013z"/>
			<path d="M100.052,232.922c-11.042,0-19.993,8.951-19.993,19.993s8.951,19.993,19.993,19.993h111.962
				c11.042,0,19.993-8.951,19.993-19.993s-8.951-19.993-19.993-19.993H100.052z"/>
			<circle cx="291.988" cy="252.915" r="19.993"/>
			<path d="M290.988,180.939c0-11.042-8.951-19.993-19.993-19.993H100.052c-11.042,0-19.993,8.951-19.993,19.993
				s8.951,19.993,19.993,19.993h170.943C282.037,200.932,290.988,191.982,290.988,180.939z"/>
			<circle cx="411.948" cy="252.915" r="19.993"/>
			<circle cx="351.968" cy="180.939" r="19.993"/>
			<circle cx="351.968" cy="252.915" r="19.993"/>
		</g>
	</g>
</g>
<g>
</g>
<g>
</g>
<g>
</g>
<g>
</g>
<g>
</g>
<g>
</g>
<g>
</g>
<g>
</g>
<g>
</g>
<g>
</g>
<g>
</g>
<g>
</g>
<g>
</g>
<g>
</g>
<g>
</g>
</svg>
