<?xml version="1.0" encoding="iso-8859-1"?>
<!-- Generator: Adobe Illustrator 19.0.0, SVG Export Plug-In . SVG Version: 6.00 Build 0)  -->
<svg version="1.1" id="Capa_1" xmlns="http://www.w3.org/2000/svg" xmlns:xlink="http://www.w3.org/1999/xlink" x="0px" y="0px"
	 viewBox="0 0 512 512" style="enable-background:new 0 0 512 512;" xml:space="preserve">
<g>
	<g>
		<g>
			<path d="M196.233,71.841h-39.844c-11.003,0-19.922,8.919-19.922,19.922s8.919,19.922,19.922,19.922h39.844
				c11.003,0,19.922-8.919,19.922-19.922S207.237,71.841,196.233,71.841z"/>
			<circle cx="176.311" cy="420.479" r="19.922"/>
			<path d="M352.623,90.924V80.685c0-43.94-35.748-79.689-79.689-79.689H79.689C35.748,0.996,0,36.744,0,80.685v350.63
				c0,43.94,35.748,79.689,79.689,79.689h193.245c43.94,0,79.689-35.748,79.689-79.689v-8.013
				c24.767-1.044,49.161-7.61,70.952-19.182c9.718-5.161,13.413-17.222,8.252-26.939s-17.222-13.412-26.939-8.252
				c-18.101,9.612-38.586,14.694-59.238,14.694c-69.755,0-126.506-56.75-126.506-126.506s56.75-126.506,126.506-126.506
				s126.506,56.75,126.506,126.506c0,17.842-3.633,35.08-10.8,51.233c-4.461,10.058,0.075,21.829,10.132,26.29
				c10.06,4.459,21.829-0.075,26.29-10.132C507.215,303.235,512,280.561,512,257.118C512,167.729,441.126,94.592,352.623,90.924z
				 M312.778,94.036C236.743,109.337,179.3,176.642,179.3,257.118S236.743,404.898,312.778,420.2v11.116
				c0,21.97-17.874,39.844-39.844,39.844H79.689c-21.97,0-39.844-17.874-39.844-39.844V80.685c0-21.97,17.874-39.844,39.844-39.844
				h193.245c21.97,0,39.844,17.874,39.844,39.844V94.036z"/>
			<path d="M345.65,356.729c11.003,0,19.922-8.919,19.922-19.922v-3.399c20.013-5.042,34.864-23.086,34.864-44.513v-7.986
				c0-25.265-20.735-45.821-46.221-45.821H340.96c-3.355,0-6.297-3.204-6.297-6.857v-0.841c0-3.496,2.707-6.132,6.297-6.132h24.612
				c11.003,0,19.922-8.919,19.922-19.922c0-11.003-8.919-19.922-19.922-19.922v-2.988c0-11.003-8.919-19.922-19.922-19.922
				c-11.003,0-19.922,8.919-19.922,19.922v5.574c-17.979,6.285-30.909,23.357-30.909,43.391v0.841
				c0,25.751,20.699,46.702,46.142,46.702h13.254c3.636,0,6.377,2.57,6.377,5.977v7.986c0,3.464-2.741,6.076-6.377,6.076h-40.44
				c-11.003,0-19.922,8.919-19.922,19.922s8.919,19.922,19.922,19.922h11.953v1.992C325.728,347.809,334.647,356.729,345.65,356.729
				z"/>
		</g>
	</g>
</g>
<g>
</g>
<g>
</g>
<g>
</g>
<g>
</g>
<g>
</g>
<g>
</g>
<g>
</g>
<g>
</g>
<g>
</g>
<g>
</g>
<g>
</g>
<g>
</g>
<g>
</g>
<g>
</g>
<g>
</g>
</svg>
