<?xml version="1.0" encoding="iso-8859-1"?>
<!-- Generator: Adobe Illustrator 19.0.0, SVG Export Plug-In . SVG Version: 6.00 Build 0)  -->
<svg version="1.1" id="Capa_1" xmlns="http://www.w3.org/2000/svg" xmlns:xlink="http://www.w3.org/1999/xlink" x="0px" y="0px"
	 viewBox="0 0 512 512" style="enable-background:new 0 0 512 512;" xml:space="preserve">
<g>
	<g>
		<path d="M491.54,422.175c11.024,0,19.961-8.937,19.961-19.961V192.624c0-27.516-22.386-49.903-49.903-49.903h-43.914
			c-27.516,0-49.903,22.386-49.903,49.903v279.454H224.062V352.312h63.875v49.903c0,11.024,8.937,19.961,19.961,19.961
			c11.024,0,19.961-8.937,19.961-19.961V49.903C327.86,22.386,305.473,0,277.957,0h-43.914c-27.516,0-49.903,22.386-49.903,49.903
			v422.175H40.421V352.312h63.875v49.903c0,11.024,8.937,19.961,19.961,19.961c11.024,0,19.961-8.937,19.961-19.961V262.487
			c0-27.516-22.386-49.903-49.903-49.903H50.402c-27.516,0-49.903,22.386-49.903,49.903v229.552C0.499,503.063,9.436,512,20.46,512
			h471.08c11.024,0,19.961-8.937,19.961-19.961s-8.937-19.961-19.961-19.961h-83.836V352.312h63.875v49.903
			C471.579,413.239,480.516,422.175,491.54,422.175z M224.062,49.903c0-5.503,4.477-9.981,9.981-9.981h43.914
			c5.503,0,9.981,4.477,9.981,9.981V312.39h-63.875V49.903z M40.421,262.487c0-5.503,4.477-9.98,9.98-9.98h43.914
			c5.503,0,9.981,4.477,9.981,9.98v49.903H40.421V262.487z M407.704,312.39V192.624c0-5.503,4.477-9.981,9.98-9.981h43.914
			c5.503,0,9.981,4.477,9.981,9.981V312.39H407.704z"/>
	</g>
</g>
<g>
</g>
<g>
</g>
<g>
</g>
<g>
</g>
<g>
</g>
<g>
</g>
<g>
</g>
<g>
</g>
<g>
</g>
<g>
</g>
<g>
</g>
<g>
</g>
<g>
</g>
<g>
</g>
<g>
</g>
</svg>
