<?xml version="1.0" encoding="iso-8859-1"?>
<!-- Generator: Adobe Illustrator 19.0.0, SVG Export Plug-In . SVG Version: 6.00 Build 0)  -->
<svg version="1.1" id="Capa_1" xmlns="http://www.w3.org/2000/svg" xmlns:xlink="http://www.w3.org/1999/xlink" x="0px" y="0px"
	 viewBox="0 0 512 512" style="enable-background:new 0 0 512 512;" xml:space="preserve">
<g>
	<g>
		<g>
			<path d="M365.063,123c-0.023,0-0.047,0-0.07,0c-5.33,0-10.441,2.128-14.197,5.913L236.05,244.554l-42.948-43.591
				c-3.728-3.783-8.807-5.928-14.117-5.963c-0.044,0-0.086,0-0.13,0c-5.264,0-10.317,2.076-14.063,5.779l-76.854,76
				c-7.854,7.767-7.925,20.43-0.158,28.284c3.912,3.956,9.064,5.938,14.222,5.937c5.08,0,10.164-1.925,14.062-5.779l62.607-61.912
				l43.083,43.727c3.751,3.807,8.868,5.954,14.212,5.963c0.012,0,0.023,0,0.035,0c5.331,0,10.441-2.128,14.197-5.913
				l114.695-115.591l30.812,31.492c7.728,7.896,20.389,8.032,28.283,0.308c7.895-7.725,8.033-20.387,0.309-28.283l-45.008-46
				C375.542,125.185,370.418,123.019,365.063,123z"/>
			<path d="M492,242c11.046,0,20-8.954,20-20V61c0-11.046-8.954-20-20-20H276V20c0-11.046-8.954-20-20-20s-20,8.954-20,20v21H20
				C8.954,41,0,49.954,0,61v262c0,44.112,35.888,80,80,80h156v69h-60c-11.046,0-20,8.954-20,20c0,11.046,8.954,20,20,20h159
				c11.046,0,20-8.954,20-20c0-11.046-8.954-20-20-20h-59v-69h156c44.112,0,80-35.888,80-80c0-11.046-8.954-20-20-20
				c-11.046,0-20,8.954-20,20c0,22.056-17.944,40-40,40H80c-22.056,0-40-17.944-40-40V81h432v141C472,233.046,480.954,242,492,242z"
				/>
		</g>
	</g>
</g>
<g>
</g>
<g>
</g>
<g>
</g>
<g>
</g>
<g>
</g>
<g>
</g>
<g>
</g>
<g>
</g>
<g>
</g>
<g>
</g>
<g>
</g>
<g>
</g>
<g>
</g>
<g>
</g>
<g>
</g>
</svg>
