<?xml version="1.0" encoding="iso-8859-1"?>
<!-- Generator: Adobe Illustrator 19.0.0, SVG Export Plug-In . SVG Version: 6.00 Build 0)  -->
<svg version="1.1" id="Capa_1" xmlns="http://www.w3.org/2000/svg" xmlns:xlink="http://www.w3.org/1999/xlink" x="0px" y="0px"
	 viewBox="0 0 511.999 511.999" style="enable-background:new 0 0 511.999 511.999;" xml:space="preserve">
<g>
	<g>
		<path d="M511.324,415.845l-8-30c-2.846-10.673-13.807-17.018-24.479-14.171c-10.673,2.846-17.018,13.805-14.172,24.478
			l1.293,4.847H355.231l16.414-70h94.942c11.046,0,20-8.954,20-20c0-11.046-8.954-20-20-20h-35.223l-4.041-15.153
			c-2.846-10.673-13.808-17.02-24.479-14.171c-10.673,2.846-17.018,13.805-14.172,24.478l1.293,4.847H279.231l16.414-70h94.942
			c11.046,0,20-8.954,20-20s-8.954-20-20-20h-38.223l-4.041-15.153c-2.846-10.673-13.808-17.018-24.479-14.171
			c-10.673,2.846-17.018,13.805-14.172,24.478l1.293,4.847H200.231l16.414-70h94.942c11.046,0,20-8.954,20-20
			c0-11.046-8.954-20-20-20H200.793c-9.287,0-17.352,6.393-19.472,15.434l-22.175,94.563H118.51
			c-9.304,0-17.378,6.415-19.482,15.478l-21.94,94.522H45.41c-9.312,0-17.391,6.426-19.486,15.499l-25.411,110
			c-1.372,5.939,0.039,12.18,3.833,16.951c3.794,4.77,9.557,7.55,15.653,7.55h472c6.214,0,12.074-2.888,15.859-7.815
			C511.644,428.256,512.924,421.849,511.324,415.845z M134.4,220.998h79.554l15.953,70H118.151L134.4,220.998z M45.145,400.998
			l16.171-70h79.036l16.414,70H45.145z M200.075,400.998l15.97-70h79.908l15.97,70H200.075z"/>
	</g>
</g>
<g>
</g>
<g>
</g>
<g>
</g>
<g>
</g>
<g>
</g>
<g>
</g>
<g>
</g>
<g>
</g>
<g>
</g>
<g>
</g>
<g>
</g>
<g>
</g>
<g>
</g>
<g>
</g>
<g>
</g>
</svg>
