<?xml version="1.0" encoding="iso-8859-1"?>
<!-- Generator: Adobe Illustrator 19.0.0, SVG Export Plug-In . SVG Version: 6.00 Build 0)  -->
<svg version="1.1" id="Capa_1" xmlns="http://www.w3.org/2000/svg" xmlns:xlink="http://www.w3.org/1999/xlink" x="0px" y="0px"
	 viewBox="0 0 512 512" style="enable-background:new 0 0 512 512;" xml:space="preserve">
<g>
	<g>
		<g>
			<path d="M478.201,226.051c-17.456-26.807-41.609-52.188-71.789-75.439c-33.105-25.505-65.977-42.727-85.344-51.817l26.908-69.645
				c0.886-2.294,1.341-4.734,1.341-7.194v-1.996c0-6.557-3.221-12.695-8.615-16.422c-5.394-3.727-12.275-4.567-18.408-2.248
				c-44.96,17.005-88.657,17.008-133.583,0.001c-6.133-2.32-13.015-1.482-18.411,2.245c-5.395,3.727-8.616,9.867-8.616,16.424v1.996
				c0,2.46,0.455,4.899,1.341,7.194l26.921,69.678c-19.279,9.098-51.974,26.319-84.897,51.814
				c-30.031,23.255-54.064,48.639-71.432,75.448C11.311,260.523,0,297.282,0,335.345c0,52.21,15.811,96.432,45.724,127.885
				c29.191,30.695,69.859,47.539,117.605,48.71c0.161,0.004,0.321,0.006,0.483,0.006L343.817,512c0.144,0,0.287-0.001,0.431-0.004
				c58.141-1.241,106.521-25.175,136.231-67.394c6.344-9.015,4.178-21.467-4.838-27.812s-21.467-4.18-27.812,4.837
				c-22.185,31.526-59.189,49.438-104.222,50.451l-179.534-0.054C87.489,470.04,39.922,417.688,39.922,335.345
				c0-55.344,29.885-106.673,88.823-152.557c38.834-30.233,78.357-48.161,89.801-53.04h64.244c0.296,0.258,0.602,0.524,0.918,0.799
				c70.688,61.495,106.53,124.02,106.53,185.836c0,11.024,8.937,19.961,19.961,19.961c11.024,0,19.961-8.937,19.961-19.961
				c0-43.438-14.076-86.837-41.866-129.204c43.031,34.677,83.784,84.36,83.784,148.166c0,11.024,8.937,19.961,19.961,19.961
				S512,346.369,512,335.345C512,297.265,500.628,260.493,478.201,226.051z M281.736,89.824h-52.471L213.817,49.84
				c27.75,5.371,55.611,5.369,83.368-0.005L281.736,89.824z"/>
			<path d="M255.481,440.14c11.024,0,19.961-8.937,19.961-19.961v-11.56c27.458-3.836,47.926-26.42,47.926-54.561v-4.899
				c0-15.083-5.903-29.173-16.624-39.673c-10.571-10.355-24.647-16.058-39.632-16.058h-18.291c-8.794,0-16.222-7.77-16.222-16.967
				v-7.28c0-8.937,6.974-15.675,16.222-15.675h17.297c5.083,0,10.342,3.403,10.342,9.098c0,11.024,8.937,19.961,19.961,19.961
				c11.024,0,19.961-8.937,19.961-19.961c0-23.922-17.665-43.884-40.94-48.161v-12.836c0-11.024-8.937-19.961-19.961-19.961
				s-19.961,8.937-19.961,19.961v13.522c-9.88,2.332-18.929,7.258-26.268,14.439c-10.689,10.46-16.576,24.528-16.576,39.614v7.28
				c0,31.369,25.186,56.889,56.144,56.889h18.291c9.16,0,16.334,6.944,16.334,15.809v4.899c0,8.677-7.022,15.221-16.334,15.221
				h-29.727c-4.905,0-9.871-3.085-9.871-8.982c0-11.024-8.937-19.961-19.961-19.961s-19.961,8.937-19.961,19.961
				c0,26.808,20.905,47.925,47.926,48.86v11.023C235.52,431.204,244.457,440.14,255.481,440.14z"/>
		</g>
	</g>
</g>
<g>
</g>
<g>
</g>
<g>
</g>
<g>
</g>
<g>
</g>
<g>
</g>
<g>
</g>
<g>
</g>
<g>
</g>
<g>
</g>
<g>
</g>
<g>
</g>
<g>
</g>
<g>
</g>
<g>
</g>
</svg>
