<?xml version="1.0" encoding="iso-8859-1"?>
<!-- Generator: Adobe Illustrator 19.0.0, SVG Export Plug-In . SVG Version: 6.00 Build 0)  -->
<svg version="1.1" id="Capa_1" xmlns="http://www.w3.org/2000/svg" xmlns:xlink="http://www.w3.org/1999/xlink" x="0px" y="0px"
	 viewBox="0 0 512 512" style="enable-background:new 0 0 512 512;" xml:space="preserve">
<g>
	<g>
		<g>
			<path d="M492,218c-11.046,0-20,8.954-20,20v51.081L371.402,185.078C359.57,172.846,343.713,165.85,327.865,166
				c-15.132,0.103-30.446,6.797-42.015,18.366l-23.342,23.342c-3.923,3.923-8.961,6.217-13.823,6.294
				c-5.128,0.088-10.435-2.234-14.519-6.352l-84.009-84.693c-7.778-7.841-20.441-7.893-28.284-0.114
				c-7.843,7.779-7.894,20.442-0.115,28.284l84.009,84.693c11.708,11.803,27.579,18.426,43.549,18.177
				c15.378-0.243,30.108-6.637,41.476-18.005l23.342-23.342c4.133-4.133,9.368-6.62,14.003-6.651c0.031,0,0.062,0,0.094,0
				c4.859,0,10.243,2.57,14.421,6.889L443.355,317H392c-11.046,0-20,8.954-20,20c0,11.046,8.954,20,20,20h60
				c33.084,0,60-26.916,60-60v-59C512,226.954,503.046,218,492,218z"/>
			<path d="M34.215,5.93C26.443-1.92,13.781-1.985,5.931,5.785c-7.85,7.771-7.915,20.434-0.145,28.284l46.565,47.043
				c3.912,3.951,9.062,5.93,14.215,5.93c5.084,0,10.17-1.927,14.069-5.786c7.85-7.771,7.915-20.434,0.145-28.284L34.215,5.93z"/>
			<path d="M218,296c-11.046,0-20,8.954-20,20v176c0,11.045,8.954,20,20,20h0.001c11.045,0,20-8.954,20-20V316
				C238,304.954,229.046,296,218,296z"/>
			<path d="M60,148c-11.046,0-20,8.954-20,20v324.001C40,503.046,48.954,512,60,512h0.001c11.045,0,20-8.954,20-19.999V168
				C80,156.954,71.046,148,60,148z"/>
			<path d="M139,227c-11.046,0-20,8.954-20,20v245.001c0,11.045,8.954,19.999,20,19.999h0.001c11.045,0,20-8.954,20-19.999V247
				C159,235.954,150.046,227,139,227z"/>
			<path d="M296,291c-11.045,0-20,8.954-20,20v181c0,11.045,8.954,20,20,20c11.046,0,20-8.954,20-20V310.999
				C315.999,299.954,307.045,291,296,291z"/>
			<path d="M452.932,399.068c-11.019,0.038-19.932,8.981-19.932,20V492c0,11.045,8.954,20,20,20h0.001c11.045,0,20-8.954,20-20
				v-72.932C473,407.996,464.004,399.03,452.932,399.068z"/>
			<path d="M373.999,398.999c-11.046,0-20,8.955-20,20V492c0,11.046,8.954,20,20,20c11.046,0,20-8.955,20-20v-73.001
				C393.999,407.954,385.045,398.999,373.999,398.999z"/>
		</g>
	</g>
</g>
<g>
</g>
<g>
</g>
<g>
</g>
<g>
</g>
<g>
</g>
<g>
</g>
<g>
</g>
<g>
</g>
<g>
</g>
<g>
</g>
<g>
</g>
<g>
</g>
<g>
</g>
<g>
</g>
<g>
</g>
</svg>
