<?xml version="1.0" encoding="iso-8859-1"?>
<!-- Generator: Adobe Illustrator 19.0.0, SVG Export Plug-In . SVG Version: 6.00 Build 0)  -->
<svg version="1.1" id="Capa_1" xmlns="http://www.w3.org/2000/svg" xmlns:xlink="http://www.w3.org/1999/xlink" x="0px" y="0px"
	 viewBox="0 0 512 512" style="enable-background:new 0 0 512 512;" xml:space="preserve">
<g>
	<g>
		<g>
			<path d="M271.158,267.406l22.587,25.007C289.446,300.679,287,310.057,287,320c0,33.084,26.916,60,60,60c11.046,0,20-8.954,20-20
				c0-11.046-8.954-20-20-20c-11.028,0-20-8.972-20-20s8.972-20,20-20s20,8.972,20,20c0,11.046,8.954,20,20,20
				c11.046,0,20-8.954,20-20c0-16.918-7.049-32.211-18.351-43.129l55.998-156.338c2.412,0.296,4.862,0.467,7.353,0.467
				c11.046,0,20-8.954,20-20s-8.954-20-20-20c-11.028,0-20-8.972-20-20s8.972-20,20-20c11.028,0,20,8.972,20,20
				c0,11.046,8.954,20,20,20c11.046,0,20-8.954,20-20c0-33.084-26.916-60-60-60c-33.084,0-60,26.916-60,60
				c0,16.05,6.347,30.636,16.647,41.414l-56.528,157.819C350.43,260.09,348.726,260,347,260c-8.556,0-16.693,1.813-24.065,5.054
				l-22.093-24.46c-7.404-8.197-20.051-8.839-28.247-1.437C264.397,246.562,263.754,259.208,271.158,267.406z"/>
			<path d="M140,432c11.046,0,20-8.954,20-20c0-11.046-8.954-20-20-20c-11.028,0-20-8.972-20-20s8.972-20,20-20s20,8.972,20,20
				c0,11.046,8.954,20,20,20s20-8.954,20-20c0-18.917-8.809-35.806-22.529-46.811l38.446-88.344
				c1.351,0.091,2.709,0.155,4.083,0.155c11.046,0,20-8.954,20-20s-8.954-20-20-20c-11.028,0-20-8.972-20-20s8.972-20,20-20
				s20,8.972,20,20c0,11.046,8.954,20,20,20s20-8.954,20-20c0-33.084-26.916-60-60-60s-60,26.916-60,60
				c0,17.344,7.405,32.984,19.21,43.948l-39.629,91.062C106.69,312.238,80,339.056,80,372C80,405.084,106.916,432,140,432z"/>
			<path d="M492,472H40V20C40,8.954,31.046,0,20,0S0,8.954,0,20v472c0,11.046,8.954,20,20,20h472c11.046,0,20-8.954,20-20
				C512,480.954,503.046,472,492,472z"/>
		</g>
	</g>
</g>
<g>
</g>
<g>
</g>
<g>
</g>
<g>
</g>
<g>
</g>
<g>
</g>
<g>
</g>
<g>
</g>
<g>
</g>
<g>
</g>
<g>
</g>
<g>
</g>
<g>
</g>
<g>
</g>
<g>
</g>
</svg>
