<?xml version="1.0" encoding="iso-8859-1"?>
<!-- Generator: Adobe Illustrator 19.0.0, SVG Export Plug-In . SVG Version: 6.00 Build 0)  -->
<svg version="1.1" id="Capa_1" xmlns="http://www.w3.org/2000/svg" xmlns:xlink="http://www.w3.org/1999/xlink" x="0px" y="0px"
	 viewBox="0 0 512 512" style="enable-background:new 0 0 512 512;" xml:space="preserve">
<g>
	<g>
		<g>
			<path d="M116,326.518v40c0,11.046,8.954,20,20,20s20-8.954,20-20v-40c0-11.046-8.954-20-20-20S116,315.472,116,326.518z"/>
			<path d="M356,326.518v40c0,11.046,8.954,20,20,20c11.046,0,20-8.954,20-20v-40c0-11.046-8.954-20-20-20
				C364.954,306.518,356,315.472,356,326.518z"/>
			<path d="M492,325.518c11.046,0,20-8.954,20-20v-120c0-44.113-35.888-80-80-80h-86.074v-20c0-33.084-26.916-60-60-60h-59.852
				c-33.084,0-60,26.916-60,60v20H80c-44.112,0-80,35.888-80,80v220.963c0,44.112,35.888,80,80,80h352c44.112,0,80-35.888,80-80
				c0-11.046-8.954-20-20-20c-11.046,0-20,8.954-20,20c0,22.056-17.944,40-40,40H80c-22.056,0-40-17.944-40-40V275.518h432v30
				C472,316.565,480.954,325.518,492,325.518z M206.074,85.518c0-11.028,8.972-20,20-20h59.852c11.028,0,20,8.972,20,20v20h-99.852
				V85.518z M116,235.518H40v-50c0-22.056,17.944-40,40-40h36V235.518z M356,235.518H156v-90h200V235.518z M396,235.518v-90h36
				c22.056,0,40,17.944,40,40v50H396z"/>
		</g>
	</g>
</g>
<g>
</g>
<g>
</g>
<g>
</g>
<g>
</g>
<g>
</g>
<g>
</g>
<g>
</g>
<g>
</g>
<g>
</g>
<g>
</g>
<g>
</g>
<g>
</g>
<g>
</g>
<g>
</g>
<g>
</g>
</svg>
