<?xml version="1.0" encoding="iso-8859-1"?>
<!-- Generator: Adobe Illustrator 19.0.0, SVG Export Plug-In . SVG Version: 6.00 Build 0)  -->
<svg version="1.1" id="Capa_1" xmlns="http://www.w3.org/2000/svg" xmlns:xlink="http://www.w3.org/1999/xlink" x="0px" y="0px"
	 viewBox="0 0 512.001 512.001" style="enable-background:new 0 0 512.001 512.001;" xml:space="preserve">
<g>
	<g>
		<g>
			<path d="M276.991,90.079h-1V56.095c0-11.041-8.95-19.991-19.99-19.991c-11.041,0-19.991,8.95-19.991,19.991v33.984h-1
				c-27.557,0-49.976,22.419-49.976,49.976v72.965c0,27.557,22.419,49.976,49.976,49.976h1v105.95
				c0,11.041,8.95,19.991,19.991,19.991s19.99-8.95,19.99-19.991v-105.95h1c27.557,0,49.976-22.419,49.976-49.976v-72.965
				C326.967,112.499,304.547,90.079,276.991,90.079z M286.986,213.021c0,5.511-4.484,9.995-9.995,9.995h-41.98
				c-5.511,0-9.995-4.484-9.995-9.995v-72.965c0-5.511,4.484-9.995,9.995-9.995h41.98c5.511,0,9.995,4.484,9.995,9.995V213.021z"/>
			<path d="M90.079,190.032V110.07c0-11.041-8.95-19.991-19.99-19.991s-19.991,8.95-19.991,19.991v79.962
				c-27.557,0-49.976,22.419-49.976,49.976v119.943c0,27.557,22.419,49.976,49.976,49.976v82.083c0,11.041,8.95,19.99,19.991,19.99
				s19.99-8.95,19.99-19.99v-82.083c27.557,0,49.976-22.419,49.976-49.976V240.008C140.056,212.45,117.636,190.032,90.079,190.032z
				 M100.075,359.951c0,5.511-4.484,9.995-9.995,9.995H50.098c-5.511,0-9.995-4.484-9.995-9.995V240.008
				c0-5.511,4.484-9.995,9.995-9.995h39.981c5.511,0,9.995,4.484,9.995,9.995V359.951z"/>
			<path d="M491.889,250.003c11.041,0,19.991-8.95,19.991-19.99V130.06c0-27.557-22.419-49.976-49.976-49.976V19.991
				C461.903,8.95,452.953,0,441.912,0s-19.991,8.95-19.991,19.991v60.093c-27.557,0-49.976,22.419-49.976,49.976v199.905
				c0,27.557,22.419,49.976,49.976,49.976v71.966c0,11.041,8.95,19.991,19.991,19.991s19.991-8.95,19.991-19.991v-71.966
				c27.557,0,49.976-22.419,49.976-49.976c0-11.041-8.95-19.99-19.991-19.99c-11.041,0-19.99,8.95-19.99,19.99
				c0,5.511-4.484,9.995-9.995,9.995h-39.981c-5.511,0-9.995-4.484-9.995-9.995V130.06c0-5.511,4.484-9.995,9.995-9.995h39.981
				c5.511,0,9.995,4.484,9.995,9.995v99.953C471.898,241.053,480.848,250.003,491.889,250.003z"/>
		</g>
	</g>
</g>
<g>
</g>
<g>
</g>
<g>
</g>
<g>
</g>
<g>
</g>
<g>
</g>
<g>
</g>
<g>
</g>
<g>
</g>
<g>
</g>
<g>
</g>
<g>
</g>
<g>
</g>
<g>
</g>
<g>
</g>
</svg>
