<?xml version="1.0" encoding="iso-8859-1"?>
<!-- Generator: Adobe Illustrator 19.0.0, SVG Export Plug-In . SVG Version: 6.00 Build 0)  -->
<svg version="1.1" id="Capa_1" xmlns="http://www.w3.org/2000/svg" xmlns:xlink="http://www.w3.org/1999/xlink" x="0px" y="0px"
	 viewBox="0 0 512 512" style="enable-background:new 0 0 512 512;" xml:space="preserve">
<g>
	<g>
		<g>
			<path d="M411.18,361.896c-7.79-7.831-20.453-7.864-28.284-0.075c-7.831,7.79-7.865,20.453-0.075,28.284l30.437,30.599
				c0.056,0.057,0.113,0.113,0.17,0.168C417.021,424.4,419,429.062,419,434s-1.979,9.601-5.573,13.128
				c-0.057,0.056-0.114,0.112-0.17,0.168l-30.437,30.599c-7.79,7.831-7.756,20.494,0.075,28.284c3.902,3.881,9.003,5.82,14.104,5.82
				c5.136,0,10.272-1.966,14.18-5.896l30.361-30.522C452.801,464.482,459,449.72,459,434c0-15.72-6.199-30.482-17.459-41.582
				L411.18,361.896z"/>
			<path d="M99.82,150.105c3.909,3.93,9.043,5.896,14.18,5.896c5.1,0,10.203-1.939,14.104-5.82
				c7.831-7.79,7.865-20.453,0.075-28.284l-30.436-30.6c-0.056-0.057-0.113-0.113-0.17-0.168C93.979,87.601,92,82.939,92,78
				s1.979-9.601,5.573-13.128c0.057-0.056,0.114-0.112,0.17-0.168l30.437-30.599c7.79-7.831,7.756-20.494-0.075-28.284
				c-7.831-7.79-20.495-7.757-28.284,0.075L69.459,36.418C58.199,47.518,52,62.28,52,78c0,15.72,6.199,30.482,17.459,41.582
				L99.82,150.105z"/>
			<path d="M345,0c-92.084,0-167,74.916-167,167c0,3.805,0.143,7.606,0.4,11.397c-3.768-0.255-7.568-0.397-11.4-0.397
				C74.916,178,0,252.916,0,345s74.916,167,167,167c27.251,0,54.302-6.716,78.229-19.423c9.755-5.181,13.464-17.289,8.284-27.044
				c-5.181-9.754-17.289-13.463-27.044-8.283C208.297,466.9,187.734,472,167,472c-70.028,0-127-56.972-127-127s56.972-127,127-127
				s127,56.972,127,127c0,17.911-3.648,35.216-10.842,51.435c-4.479,10.097,0.076,21.913,10.173,26.392
				c10.097,4.478,21.913-0.076,26.392-10.173C329.196,391.296,334,368.533,334,345c0-36.143-11.546-69.638-31.136-97H383
				c11.046,0,20-8.954,20-20s-8.954-20-20-20h-37.482c1.855-6.192,3.137-13.479,3.418-22H357c11.046,0,20-8.954,20-20
				s-8.954-20-20-20h-12.81c-0.695-5.008-1.19-10.265-1.19-16c0-3.51,2.718-6.156,6.322-6.156h24.708c11.046,0,20-8.954,20-20
				s-8.954-20-20-20h-24.708C323.78,83.844,303,104.55,303,130c0,5.84,0.377,11.242,0.926,16.26
				C294.344,147.743,287,156.003,287,166c0,11.046,8.954,20,20,20h1.907c-0.814,15.469-6.896,20.415-9.303,21.004
				c-5.63,0.109-10.677,2.558-14.246,6.399c-2.503,2.34-4.418,5.301-5.461,8.655c-17.211-15.818-37.74-28.076-60.41-35.6
				C218.504,180.046,218,173.53,218,167c0-70.028,56.972-127,127-127s127,56.972,127,127c0,55.41-35.411,104.013-88.116,120.942
				c-10.517,3.378-16.304,14.642-12.926,25.158c2.725,8.484,10.581,13.889,19.038,13.889c2.026,0,4.088-0.311,6.121-0.963
				c33.409-10.731,62.16-31.374,83.144-59.697C500.679,237.421,512,203.074,512,167C512,74.916,437.084,0,345,0z"/>
			<path d="M167.001,445c11.046,0,20-8.954,20-20v-3.412c20.091-5.063,35-23.176,35-44.688v-8.016c0-25.364-20.816-46-46.402-46
				h-13.306c-3.367,0-6.321-3.217-6.321-6.884v-0.844c0-3.51,2.717-6.156,6.321-6.156h24.708c11.046,0,20-8.954,20-20
				c0-11.046-8.954-20-20-20v-3c0-11.046-8.954-20-20-20c-11.046,0-20,8.954-20,20v5.596c-18.049,6.309-31.03,23.448-31.03,43.56
				V316c0,25.852,20.779,46.884,46.321,46.884h13.306c3.65,0,6.402,2.58,6.402,6v8.016c0,3.477-2.752,6.1-6.402,6.1H135
				c-11.046,0-20,8.954-20,20c0,11.046,8.954,20,20,20h12v2C147,436.046,155.955,445,167.001,445z"/>
		</g>
	</g>
</g>
<g>
</g>
<g>
</g>
<g>
</g>
<g>
</g>
<g>
</g>
<g>
</g>
<g>
</g>
<g>
</g>
<g>
</g>
<g>
</g>
<g>
</g>
<g>
</g>
<g>
</g>
<g>
</g>
<g>
</g>
</svg>
